<svg xmlns="http://www.w3.org/2000/svg" viewBox="0 0 785.8 150.8"><path d="M0 148.4V6h40v142.4H0Zm32.4-50h-.2l26-28.8c17.8 1.5 23.7-25.5 8.5-32.9-5.5-3.5-28-1.3-34.3-1.9V6c36.2-1.6 82.2-1.9 82.6 46.2-.4 48-46.4 47.9-82.6 46.2Zm140.4 52.4c-61.2-.5-48.6-58.9-49.4-100.8h39.2v57.2a9.9 9.9 0 0 0 10.2 10.4 10 10 0 0 0 10-10.4V50H222c-.6 41.6 11.4 100.9-49.2 100.8Zm63.4-2.4V2h39.2v72.2L269 98l5.4 24v26.4h-38.2Zm60.6 2c-15.6.1-32.9-9.6-36.8-25 2.8-33.8-14.4-75.4 36.8-77.4 64.8-1 64.7 103.3 0 102.4Zm-7.2-34.4c21.8.4 21.6-34.1-.2-33.6-21.5-.8-21.2 34.6.2 33.6Z"/><path d="M356.2 148.4V2h39.2v146.4h-39.2Zm75.4-107.6c-26.3.4-26.3-41.2 0-40.8 26.3-.5 26.3 41.3 0 40.8ZM412 148.4V50h39.2v98.4H412Z"/><path d="M517.6 150.8C410 141.9 475.5.4 556.4 62.2l-24.6 24.6c-10.4-10-31.8-3.8-31 12.2-.8 16.6 22.1 23.2 32 11.4l24.6 24.6a54 54 0 0 1-39.8 15.8Z"/><path d="M605 150.4c-72.6-2.1-56.2-123.1 15.9-99.5 9.1 3.6 16.6 10.6 18.5 20.1v56.4c-3.2 15.2-19.5 23.2-34.4 23Zm8.8-34.4c21.5 1.1 21.6-34.4.2-33.6-21.7-.3-22 33.8-.2 33.6Zm15.2 32.4V122l5.4-24-5.4-23.8V50h38.2v98.4H629Zm55 0V50h39.2v98.4H684Zm62.6 0c-1.3-6.7 3.3-60.3-3.3-64.1-7.2-6.8-21.1-1.9-20.1 8.9L708 86.4c-2.7-48.6 79.2-51.8 77.8-2.2v64.2h-39.2Z"/></svg>