<svg xmlns="http://www.w3.org/2000/svg" viewBox="0 0 64 64"><path fill="#639" d="M0 0h53.76A10.24 10.24 0 0 1 64 10.24v43.52A10.24 10.24 0 0 1 53.76 64H10.24A10.24 10.24 0 0 1 0 53.76Z"/><path fill="#fff" d="M52.26 58.87c-2.07 0-3.66-.6-4.77-1.81-1.1-1.22-1.67-2.96-1.72-5.23h4.47c.02 2.01.73 3.02 2.11 3.02.71 0 1.21-.23 1.5-.67.28-.44.43-1.15.43-2.11 0-.77-.2-1.42-.56-1.92a4.68 4.68 0 0 0-1.9-1.35l-1.65-.8a7.83 7.83 0 0 1-3.2-2.51c-.65-.97-.97-2.33-.97-4.07a6.7 6.7 0 0 1 1.69-4.73c1.15-1.21 2.73-1.81 4.73-1.81 1.94 0 3.45.6 4.5 1.78 1.08 1.2 1.65 2.9 1.7 5.13h-4.3a4.62 4.62 0 0 0-.44-2.12c-.24-.48-.72-.73-1.42-.73-1.26 0-1.89.75-1.89 2.24 0 .76.15 1.35.46 1.8a4.17 4.17 0 0 0 1.63 1.12l1.58.7a8.1 8.1 0 0 1 3.54 2.77 7.9 7.9 0 0 1 1.1 4.42c0 2.22-.58 3.92-1.76 5.1-1.16 1.19-2.79 1.78-4.86 1.78zm-14.43 0c-2.07 0-3.66-.6-4.77-1.81-1.1-1.22-1.67-2.96-1.72-5.23h4.47c.03 2.01.73 3.02 2.12 3.02.7 0 1.2-.23 1.49-.67.29-.44.43-1.15.43-2.11 0-.77-.19-1.42-.56-1.92a4.68 4.68 0 0 0-1.89-1.35l-1.65-.8a7.82 7.82 0 0 1-3.21-2.51 7.35 7.35 0 0 1-.97-4.07c0-1.94.57-3.52 1.7-4.73 1.15-1.21 2.72-1.81 4.73-1.81 1.94 0 3.44.6 4.5 1.78 1.08 1.2 1.64 2.9 1.68 5.13h-4.3a4.62 4.62 0 0 0-.42-2.12c-.25-.48-.72-.73-1.43-.73-1.26 0-1.89.75-1.89 2.24 0 .76.16 1.35.47 1.8a4.17 4.17 0 0 0 1.62 1.12l1.58.7a8.1 8.1 0 0 1 3.55 2.77A7.95 7.95 0 0 1 44.45 52c0 2.22-.59 3.92-1.75 5.1-1.17 1.19-2.8 1.78-4.87 1.78zm-15.02 0c-2.03 0-3.64-.55-4.83-1.65-1.2-1.1-1.79-2.74-1.79-4.92V41.53c0-2.17.63-3.81 1.89-4.94a7.37 7.37 0 0 1 5.02-1.68c2.01 0 3.6.58 4.77 1.72 1.19 1.14 1.79 2.85 1.79 5.13v.85h-4.73v-.83c0-.88-.2-1.52-.57-1.95a1.7 1.7 0 0 0-1.39-.66c-.77 0-1.31.26-1.62.8a5.06 5.06 0 0 0-.43 2.34v9.36c0 1.96.69 2.95 2.05 2.97.65 0 1.13-.23 1.46-.69a3.31 3.31 0 0 0 .5-1.95v-.7h4.73v.73c0 1.52-.3 2.8-.9 3.8a5.68 5.68 0 0 1-2.44 2.29 7.77 7.77 0 0 1-3.51.75z"/></svg>