<svg xmlns="http://www.w3.org/2000/svg" viewBox="0 0 64 64"><path fill="#f7df1e" d="M0 0h64v64H0Z"/><path d="m16.83 53.48 4.9-2.96c.94 1.67 1.8 3.1 3.86 3.1 1.98 0 3.22-.78 3.22-3.79V29.38h6.02v20.54c0 6.23-3.65 9.06-8.98 9.06-4.81 0-7.6-2.49-9.02-5.5m21.27-.64L43 50c1.28 2.1 2.96 3.65 5.92 3.65 2.5 0 4.08-1.24 4.08-2.96 0-2.06-1.63-2.8-4.38-4l-1.5-.64C42.78 44.2 39.9 41.88 39.9 37c0-4.51 3.44-7.95 8.8-7.95 3.83 0 6.58 1.33 8.56 4.81l-4.69 3c-1.03-1.84-2.15-2.57-3.86-2.57-1.76 0-2.88 1.12-2.88 2.58 0 1.8 1.12 2.53 3.7 3.65l1.5.64c5.1 2.2 7.99 4.43 7.99 9.45 0 5.42-4.26 8.38-9.97 8.38-5.58 0-9.2-2.66-10.95-6.14"/></svg>